<?xml version="1.0" standalone="no"?>
<!DOCTYPE svg PUBLIC "-//W3C//DTD SVG 20010904//EN"
 "http://www.w3.org/TR/2001/REC-SVG-20010904/DTD/svg10.dtd">
<svg version="1.0" xmlns="http://www.w3.org/2000/svg"
 width="568.000000pt" height="568.000000pt" viewBox="0 0 568.000000 568.000000"
 preserveAspectRatio="xMidYMid meet">
<metadata>
Created by potrace 1.14, written by Peter Selinger 2001-2017
</metadata>
<g transform="translate(0.000000,568.000000) scale(0.100000,-0.100000)"
fill="#000000" stroke="none">
<path d="M2855 5630 c-3 -5 -39 -10 -79 -10 -53 0 -77 -4 -86 -15 -7 -8 -20
-15 -30 -15 -10 0 -23 -7 -30 -15 -7 -8 -20 -15 -30 -15 -10 0 -23 7 -30 15
-7 9 -29 15 -55 15 -26 0 -48 -6 -55 -15 -8 -10 -30 -15 -62 -15 -34 0 -50 -4
-54 -15 -4 -8 -15 -15 -25 -15 -10 0 -43 -25 -73 -55 -29 -30 -60 -55 -68 -55
-8 0 -27 -13 -43 -30 -16 -16 -36 -30 -46 -30 -9 0 -22 -7 -29 -15 -7 -8 -20
-15 -29 -15 -20 0 -84 -63 -87 -86 -2 -9 -14 -29 -28 -43 -14 -15 -26 -34 -26
-43 0 -9 -13 -28 -30 -41 l-30 -26 0 -276 c0 -236 2 -276 15 -281 11 -5 15
-22 15 -69 0 -43 5 -66 15 -75 8 -7 15 -28 15 -46 0 -41 9 -42 40 -9 13 14 31
25 40 25 9 0 26 10 38 23 18 19 22 35 22 84 0 45 4 62 15 67 11 4 15 22 15 69
0 45 5 68 15 77 8 7 15 20 15 30 0 10 7 20 15 24 9 3 15 18 15 40 0 19 5 38
10 41 6 3 10 14 10 23 0 22 130 152 152 152 8 0 21 7 28 15 8 10 30 15 61 15
46 0 49 2 49 25 0 22 4 25 37 25 33 0 46 -9 110 -72 49 -48 74 -67 77 -57 15
49 15 49 65 49 34 0 51 4 55 15 8 23 172 21 198 -1 19 -18 17 -21 33 31 2 9
16 15 33 15 16 0 35 -7 42 -15 8 -9 30 -15 60 -15 30 0 52 6 60 15 7 8 18 15
25 15 7 0 18 -7 25 -15 7 -8 27 -15 45 -15 18 0 38 -7 45 -15 9 -10 32 -15 75
-15 47 0 64 -4 69 -15 3 -8 14 -15 24 -15 10 0 41 -24 70 -53 41 -41 52 -59
52 -85 0 -18 5 -32 10 -32 6 0 10 -28 10 -64 0 -44 5 -67 15 -76 11 -9 15 -34
15 -100 0 -64 4 -91 15 -100 8 -7 15 -34 17 -63 3 -48 5 -52 28 -52 18 0 26 6
28 22 2 12 10 27 18 33 8 7 14 27 14 45 0 18 7 38 15 45 11 9 15 33 15 86 0
40 5 76 10 79 6 4 10 77 10 185 0 108 -4 181 -10 185 -5 3 -10 21 -10 39 0 19
-7 39 -15 46 -8 7 -15 20 -15 30 0 10 -7 23 -15 30 -8 7 -15 19 -15 27 0 19
-183 203 -202 203 -8 0 -32 18 -53 40 -21 22 -47 40 -56 40 -9 0 -22 7 -29 15
-7 8 -20 15 -30 15 -10 0 -23 7 -30 15 -7 8 -28 15 -47 15 -21 0 -36 6 -39 15
-4 8 -16 15 -29 15 -13 0 -25 7 -29 15 -3 8 -16 15 -30 15 -13 0 -26 7 -30 15
-4 12 -26 15 -110 15 -59 0 -108 4 -111 10 -3 6 -24 10 -45 10 -21 0 -42 -4
-45 -10z"/>
<path d="M2360 4675 c-13 -14 -31 -25 -40 -25 -28 0 -90 -72 -90 -106 0 -45
10 -48 41 -14 19 20 37 30 57 30 16 0 35 7 42 15 9 11 34 15 100 15 66 0 91
-4 100 -15 9 -10 32 -15 76 -15 47 0 65 -4 72 -16 6 -11 21 -14 58 -12 48 3
49 4 52 37 5 50 -28 81 -89 81 -29 0 -51 6 -59 15 -7 8 -28 15 -46 15 -19 0
-34 5 -34 10 0 6 -43 10 -108 10 -103 0 -110 -1 -132 -25z"/>
<path d="M3051 4656 l-23 -24 21 -21 c15 -15 34 -21 65 -21 27 0 48 -6 56 -15
12 -14 15 -14 30 0 25 22 225 22 234 -1 3 -8 11 -12 16 -9 6 4 -13 30 -44 61
l-54 54 -139 0 c-134 0 -140 -1 -162 -24z"/>
<path d="M2975 4580 c-8 -13 20 -24 41 -16 20 8 9 26 -16 26 -10 0 -22 -5 -25
-10z"/>
<path d="M2260 4465 c-7 -8 -28 -15 -47 -15 -21 0 -36 -6 -39 -15 -4 -8 -15
-15 -25 -15 -29 0 -59 -36 -59 -71 0 -18 -7 -37 -16 -44 -15 -10 -10 -18 40
-68 31 -31 56 -65 56 -75 0 -22 28 -47 63 -56 15 -3 27 -11 27 -16 0 -6 28
-10 62 -10 56 0 65 -3 93 -30 28 -27 33 -29 45 -15 8 9 29 15 56 15 46 0 67
-17 40 -32 -9 -5 -14 -13 -11 -19 9 -14 41 -11 55 6 7 8 16 12 21 9 15 -9 10
-44 -6 -50 -10 -4 -15 -20 -15 -45 0 -34 3 -39 23 -39 13 0 33 -13 47 -30 14
-16 34 -29 45 -29 11 0 31 13 45 29 27 34 86 42 96 15 4 -8 17 -15 30 -15 18
0 24 5 24 23 0 33 10 40 31 21 23 -20 83 -15 87 8 2 9 -6 26 -18 38 -20 20
-23 20 -39 6 -10 -9 -25 -16 -34 -16 -9 0 -19 -4 -22 -10 -3 -5 -17 -10 -30
-10 -13 0 -27 5 -30 10 -3 6 -15 10 -25 10 -10 0 -23 7 -28 16 -6 11 -20 14
-48 12 -32 -2 -40 -7 -42 -25 -3 -17 -10 -23 -28 -23 -22 0 -24 3 -24 55 0 48
2 55 20 55 23 0 60 33 60 54 0 7 7 19 15 26 8 7 15 20 15 29 0 10 13 30 29 46
17 15 31 37 33 49 4 30 71 31 76 1 2 -11 17 -32 33 -47 16 -15 29 -34 29 -42
0 -8 23 -38 50 -66 41 -40 58 -50 84 -50 21 0 36 6 40 15 7 19 40 19 56 0 12
-14 15 -14 31 0 16 15 18 15 28 -2 10 -17 12 -17 25 0 10 13 29 17 90 17 59 0
78 3 82 15 4 8 15 15 26 15 21 0 118 90 118 110 0 7 14 28 30 47 24 26 30 43
29 71 -3 49 -33 82 -75 82 -17 0 -37 7 -44 15 -7 8 -28 15 -46 15 -24 0 -34
-5 -34 -15 0 -8 9 -15 20 -15 36 0 60 -35 60 -89 0 -34 -4 -51 -15 -55 -10 -4
-15 -20 -15 -53 -1 -39 -6 -54 -30 -80 l-30 -33 -178 0 -178 0 -47 48 c-36 36
-47 55 -47 79 0 17 -7 36 -15 43 -9 7 -15 29 -15 54 0 53 31 86 78 86 20 0 35
6 38 15 7 16 39 21 48 6 3 -4 -6 -19 -19 -31 -14 -13 -25 -27 -25 -32 0 -18
32 -20 50 -3 19 17 21 16 47 -14 15 -17 32 -31 38 -31 6 0 24 14 40 30 36 38
75 41 75 6 0 -13 7 -26 15 -30 17 -6 45 2 45 14 0 5 10 10 22 12 28 4 36 28
10 28 -11 0 -25 6 -32 14 -6 8 -20 16 -31 18 -32 5 -22 23 16 28 20 3 36 10
35 15 0 6 -72 11 -189 13 -158 2 -190 0 -201 -13 -8 -10 -30 -15 -62 -15 -34
0 -50 -4 -54 -15 -4 -8 -16 -15 -29 -15 -13 0 -25 7 -29 15 -3 9 -18 15 -39
15 -19 0 -40 7 -47 15 -9 10 -32 15 -75 15 -47 0 -64 4 -69 15 -4 13 -34 15
-179 15 -143 0 -177 -3 -187 -15z m163 -30 c-1 -5 -12 -11 -23 -13 -12 -2 -24
-10 -27 -18 -3 -8 -14 -14 -24 -14 -23 0 -62 -37 -54 -50 4 -6 33 -10 65 -10
46 0 61 4 69 17 9 17 10 17 29 0 29 -26 105 -20 110 8 6 32 21 41 35 20 10
-12 16 -15 21 -6 4 6 0 14 -8 17 -9 3 -16 12 -16 19 0 8 -12 15 -27 17 -32 3
-34 21 -3 26 11 2 23 -3 26 -12 5 -12 20 -16 59 -16 36 0 55 -4 58 -14 3 -8
16 -16 29 -18 21 -3 23 -9 26 -67 2 -50 0 -67 -12 -73 -9 -5 -16 -22 -16 -41
0 -21 -10 -41 -32 -64 l-32 -33 -177 0 c-108 0 -180 4 -184 10 -3 6 -13 10
-22 10 -23 0 -63 39 -63 61 0 25 21 35 32 15 5 -9 14 -14 19 -10 13 8 -30 51
-56 55 -17 4 -20 13 -23 63 -3 49 0 62 19 82 12 13 30 24 40 24 9 0 22 7 29
15 10 12 29 15 74 13 34 -2 60 -7 59 -13z"/>
<path d="M1937 4282 c-10 -10 -17 -35 -17 -55 0 -32 3 -37 24 -37 13 0 27 -7
30 -16 7 -19 26 -9 26 15 0 10 7 24 15 31 8 7 15 28 15 46 0 33 -1 34 -38 34
-25 0 -45 -7 -55 -18z"/>
<path d="M3714 4236 c-8 -21 3 -49 16 -41 5 3 10 15 10 25 0 25 -18 36 -26 16z"/>
<path d="M1750 4150 c0 -68 1 -70 25 -70 22 0 25 4 25 35 0 23 5 37 15 40 51
16 49 14 25 40 -16 17 -34 25 -57 25 l-33 0 0 -70z"/>
<path d="M3884 4177 c-9 -24 0 -152 11 -150 14 4 19 163 5 163 -6 0 -13 -6
-16 -13z"/>
<path d="M1890 4120 c0 -5 5 -10 10 -10 6 0 10 5 10 10 0 6 -4 10 -10 10 -5 0
-10 -4 -10 -10z"/>
<path d="M1882 4027 c-25 -27 -29 -79 -7 -97 8 -7 15 -28 15 -46 0 -33 1 -34
39 -34 26 0 41 -5 45 -16 3 -9 15 -14 26 -12 31 5 29 23 -2 26 -26 3 -28 6
-28 51 0 32 5 53 16 61 10 9 14 26 12 49 -3 35 -4 36 -48 39 -37 2 -50 -1 -68
-21z"/>
<path d="M3685 4010 c-3 -6 1 -13 9 -16 13 -5 16 -23 16 -83 0 -43 3 -81 7
-84 10 -10 53 34 53 54 0 9 7 22 16 29 23 20 15 74 -13 78 -12 2 -27 10 -33
18 -14 16 -46 19 -55 4z"/>
<path d="M3084 3915 c-3 -8 -3 -19 1 -25 11 -18 25 -11 25 15 0 27 -17 34 -26
10z"/>
<path d="M2635 3665 c-16 -51 -14 -49 -34 -31 -12 11 -31 16 -53 14 -28 -2
-34 -7 -36 -30 -2 -16 -8 -28 -13 -28 -17 0 -9 -47 11 -65 16 -15 22 -16 35
-5 12 10 19 10 27 2 7 -7 33 -12 59 -12 32 0 49 -5 53 -15 6 -15 56 -21 56 -7
0 5 -11 19 -25 32 -14 13 -25 27 -25 32 0 12 357 10 365 -2 3 -5 21 -10 39
-10 19 0 39 -7 46 -15 19 -23 60 -19 60 5 0 35 -35 60 -84 60 -26 0 -48 6 -56
15 -9 10 -32 15 -77 15 -47 0 -65 4 -69 15 -4 10 -20 15 -44 15 -24 0 -40 5
-44 15 -3 9 -19 15 -41 15 -22 0 -38 -6 -41 -15 -4 -8 -16 -15 -29 -15 -13 0
-25 7 -29 15 -3 8 -15 15 -26 15 -11 0 -23 -7 -25 -15z"/>
<path d="M2375 3150 c-3 -5 -15 -10 -25 -10 -46 0 -25 -29 124 -179 86 -86
156 -163 156 -171 0 -18 34 -50 54 -50 7 0 19 -7 26 -15 20 -24 73 -19 100 10
20 21 21 25 6 31 -22 8 -20 24 3 24 11 0 26 7 35 15 8 8 21 15 29 15 8 0 20 7
27 15 7 8 27 15 44 15 23 0 41 9 61 30 16 17 36 30 46 30 9 0 22 7 29 15 7 8
21 15 32 15 11 0 18 5 16 13 -3 8 -32 13 -86 15 -45 2 -82 7 -82 12 0 5 -17
10 -37 12 -30 2 -38 8 -43 28 -9 38 -45 38 -77 1 l-26 -30 -38 37 c-20 21 -38
46 -40 57 -6 29 -42 26 -49 -5 -7 -30 -35 -38 -59 -16 -16 15 -19 15 -31 1 -7
-8 -20 -15 -29 -15 -18 0 -51 33 -51 53 -1 28 -38 57 -74 57 -19 0 -38 -4 -41
-10z"/>
<path d="M1747 2496 c-4 -9 -17 -16 -31 -16 -13 0 -26 -7 -30 -15 -3 -9 -18
-15 -39 -15 -19 0 -40 -7 -47 -15 -9 -11 -33 -15 -86 -15 -40 0 -76 -4 -79
-10 -4 -6 -75 -10 -180 -10 -141 0 -176 -3 -189 -15 -10 -10 -34 -15 -73 -15
-53 0 -62 -3 -88 -30 -16 -16 -36 -30 -46 -30 -9 0 -22 -7 -29 -15 -7 -8 -20
-15 -30 -15 -10 0 -20 -7 -24 -15 -3 -8 -14 -15 -25 -15 -23 0 -291 -263 -291
-286 0 -8 -11 -25 -25 -38 -23 -22 -25 -29 -25 -125 0 -99 -1 -101 -30 -129
-20 -20 -30 -39 -30 -59 0 -17 -7 -36 -15 -43 -10 -9 -15 -32 -15 -75 0 -47
-4 -64 -15 -69 -12 -4 -15 -29 -15 -139 0 -107 -3 -137 -15 -147 -12 -10 -15
-39 -15 -145 0 -106 -3 -135 -15 -145 -12 -10 -15 -42 -15 -171 0 -94 -4 -160
-10 -164 -6 -4 -10 -56 -10 -124 0 -93 -3 -121 -15 -131 -11 -9 -15 -34 -15
-100 0 -66 -4 -91 -15 -100 -8 -7 -15 -23 -15 -36 l0 -24 169 0 c141 0 170 2
175 15 3 8 14 15 24 15 11 0 25 7 32 15 7 8 20 15 30 15 10 0 23 7 30 15 7 8
27 15 45 15 20 0 35 6 39 15 4 11 20 15 55 15 27 0 53 4 56 10 4 6 77 10 185
10 108 0 181 -4 185 -10 3 -6 29 -10 56 -10 35 0 51 -4 55 -15 4 -8 17 -15 30
-15 14 0 27 -7 30 -15 4 -8 14 -15 24 -15 10 0 30 -13 43 -30 24 -28 31 -30
91 -30 59 0 66 2 66 20 0 11 18 38 40 60 38 38 43 40 99 40 33 0 63 5 66 10 3
6 39 10 79 10 53 0 77 4 86 15 8 9 30 15 60 15 30 0 52 6 60 15 10 12 42 15
170 15 128 0 160 -3 170 -15 9 -11 33 -15 90 -15 60 0 79 -3 84 -15 4 -12 25
-15 101 -15 57 0 95 -4 95 -10 0 -5 22 -10 49 -10 31 0 53 -5 61 -15 8 -10 30
-15 62 -15 34 0 50 -4 54 -15 5 -11 22 -15 69 -15 43 0 66 -5 75 -15 9 -11 33
-15 91 -15 64 0 79 -3 79 -15 0 -13 43 -15 330 -15 183 0 330 4 330 9 0 5 -7
14 -15 21 -14 12 -14 15 0 30 8 9 15 23 15 31 0 8 25 39 55 69 30 30 55 61 55
69 0 8 20 34 45 58 25 23 45 49 45 57 0 22 67 86 90 86 16 0 20 7 20 33 1 38
30 77 59 77 12 0 24 7 27 15 4 8 16 15 28 15 11 1 32 14 46 30 13 17 34 30 46
30 12 0 24 7 28 15 3 8 14 15 24 15 11 0 25 7 32 15 7 8 21 15 31 15 10 0 21
5 24 10 3 6 41 10 84 10 65 0 81 -3 96 -20 18 -20 18 -21 -8 -48 -15 -16 -27
-31 -27 -35 0 -4 50 -7 110 -7 91 0 112 3 117 16 5 13 9 12 29 -7 13 -12 24
-30 24 -40 0 -10 8 -23 18 -28 16 -10 16 -12 -3 -27 -19 -14 -19 -16 -2 -25 9
-6 17 -18 17 -28 0 -10 7 -24 15 -31 14 -12 11 -18 -22 -52 -27 -28 -45 -38
-69 -38 -17 0 -37 -7 -44 -15 -7 -8 -21 -15 -31 -15 -23 0 -25 -16 -4 -24 9
-3 15 -18 15 -37 0 -34 -62 -109 -90 -109 -9 0 -27 -11 -40 -25 -13 -14 -31
-25 -40 -25 -15 0 -90 -69 -90 -83 0 -4 142 -7 315 -7 l315 0 0 25 c0 14 -7
28 -15 31 -10 4 -15 21 -15 54 0 30 -6 52 -15 60 -8 7 -15 27 -15 45 0 18 -7
38 -15 45 -8 7 -15 20 -15 30 0 10 -7 23 -15 30 -8 7 -15 28 -15 46 0 19 -4
34 -10 34 -5 0 -10 9 -10 19 0 11 -7 26 -15 35 -8 8 -15 28 -15 44 0 16 -7 35
-15 42 -10 9 -15 31 -15 73 0 45 -4 63 -17 73 -17 13 -17 15 0 25 17 10 17 12
2 28 -14 16 -14 19 0 31 21 17 21 106 0 114 -9 3 -15 18 -15 39 0 19 -7 40
-15 47 -11 9 -15 33 -15 90 0 60 -3 79 -15 84 -8 3 -15 14 -15 24 0 11 -7 25
-15 32 -8 7 -15 27 -15 46 0 18 -4 36 -10 39 -5 3 -10 22 -10 41 0 22 -6 37
-15 40 -9 4 -15 19 -15 39 0 18 -7 38 -15 45 -11 9 -15 33 -15 86 l0 74 -79
80 c-44 44 -87 80 -96 80 -8 0 -39 25 -67 55 -28 30 -58 55 -68 55 -9 0 -29
14 -45 30 -16 17 -36 30 -46 30 -9 0 -22 7 -29 15 -7 8 -20 15 -30 15 -10 0
-23 7 -30 15 -7 8 -21 15 -31 15 -10 0 -21 4 -24 10 -3 5 -15 10 -26 10 -11 0
-22 7 -25 15 -4 8 -17 15 -30 15 -14 0 -27 7 -30 15 -4 8 -14 15 -24 15 -10 0
-23 7 -30 15 -7 8 -20 15 -30 15 -10 0 -23 7 -30 15 -7 8 -20 15 -30 15 -10 0
-23 7 -30 15 -7 8 -20 15 -30 15 -10 0 -23 7 -30 15 -9 11 -34 15 -101 15 -48
0 -91 5 -94 10 -3 6 -22 10 -41 10 -22 0 -37 6 -40 15 -4 8 -17 15 -30 15 -14
0 -27 7 -30 15 -4 8 -15 15 -25 15 -11 0 -39 20 -62 45 -34 35 -51 45 -75 45
-32 0 -45 -21 -22 -35 6 -3 10 -32 10 -64 0 -47 4 -61 23 -79 13 -12 31 -22
40 -22 23 0 29 -16 12 -30 -8 -7 -15 -20 -15 -29 0 -10 -13 -30 -30 -46 -16
-16 -30 -36 -30 -45 0 -20 -61 -80 -81 -80 -8 0 -28 -13 -44 -30 -16 -16 -36
-30 -46 -30 -9 0 -22 -7 -29 -15 -7 -8 -27 -15 -46 -15 -18 0 -36 -5 -39 -10
-3 -6 -32 -10 -64 -10 -40 0 -63 -5 -71 -15 -9 -11 -35 -15 -105 -15 -70 0
-96 4 -105 15 -9 11 -34 15 -101 15 -48 0 -91 5 -94 10 -3 6 -22 10 -41 10
-22 0 -37 6 -40 15 -4 8 -17 15 -30 15 -14 0 -27 7 -30 15 -4 8 -16 15 -29 15
-13 0 -25 7 -29 15 -3 8 -14 15 -24 15 -10 0 -31 14 -47 30 -16 17 -36 30 -45
30 -8 0 -40 25 -70 55 -30 30 -61 55 -70 55 -20 0 -170 151 -170 171 0 20 -71
89 -92 89 -8 0 -21 7 -28 15 -7 8 -21 15 -31 15 -10 0 -21 5 -24 10 -3 6 -14
10 -23 10 -20 0 -55 36 -62 65 -7 25 -45 32 -53 11z m1175 -1293 c19 -17 24
-48 10 -57 -12 -7 -42 31 -42 54 0 24 8 25 32 3z m-64 -430 c3 -44 0 -52 -17
-58 -26 -8 -41 1 -41 24 0 10 -7 24 -15 31 -16 13 -20 42 -8 54 4 4 23 6 43 4
35 -3 35 -3 38 -55z m137 47 c8 -13 -20 -24 -41 -16 -20 8 -9 26 16 26 10 0
22 -5 25 -10z m87 -111 c7 -47 -24 -81 -71 -77 -25 2 -37 8 -39 21 -4 21 29
57 51 57 8 0 20 7 27 15 19 22 27 18 32 -16z m-224 -116 c2 -52 0 -65 -18 -83
-28 -28 -93 -25 -99 5 -2 11 -14 30 -27 42 -23 22 -34 80 -17 97 4 4 41 5 83
4 l75 -3 3 -62z m159 -23 c45 0 46 -10 7 -47 -30 -28 -43 -34 -73 -31 -31 3
-36 7 -39 32 -2 19 4 36 19 52 20 22 24 22 39 9 9 -8 30 -15 47 -15z"/>
<path d="M4430 470 c0 -5 5 -10 10 -10 6 0 10 5 10 10 0 6 -4 10 -10 10 -5 0
-10 -4 -10 -10z"/>
<path d="M4302 375 c-12 -13 -19 -26 -15 -28 5 -3 19 5 31 18 12 13 19 26 15
28 -5 3 -19 -5 -31 -18z"/>
<path d="M4493 113 c-7 -2 -13 -14 -13 -26 -1 -12 -14 -33 -30 -47 -38 -31
-38 -40 0 -40 27 0 30 3 30 30 0 17 5 30 11 30 19 0 49 44 36 52 -13 9 -17 9
-34 1z"/>
<path d="M4062 54 c-39 -40 -40 -54 -7 -54 21 0 25 5 25 30 0 20 5 30 15 30 8
0 15 4 15 9 0 23 -18 17 -48 -15z"/>
</g>
</svg>
